<?xml version="1.0" encoding="UTF-8"?>
<svg version="1.1" xmlns="http://www.w3.org/2000/svg" width="293" height="297">
<path d="M0 0 C96.69 0 193.38 0 293 0 C293 98.01 293 196.02 293 297 C196.31 297 99.62 297 0 297 C0 198.99 0 100.98 0 0 Z " fill="#FAFAFA" transform="translate(0,0)"/>
<path d="M0 0 C4.03035087 -0.4915062 6.2168747 -0.11235943 9.375 2.3125 C10.24318359 2.99505859 10.24318359 2.99505859 11.12890625 3.69140625 C14.18635038 5.82970225 17.4784924 6.80626861 21 8 C21.99 8.495 21.99 8.495 23 9 C23 9.66 23 10.32 23 11 C23.94875 11.309375 24.8975 11.61875 25.875 11.9375 C29 13 29 13 31 14 C31 14.66 31 15.32 31 16 C31.59312988 16.11698242 32.18625977 16.23396484 32.79736328 16.35449219 C36.38790248 17.40674065 39.01515115 19.92447535 41.875 22.25 C42.47441406 22.72824219 43.07382813 23.20648438 43.69140625 23.69921875 C51.18092642 29.69408413 58.09255493 35.887947 64.625 42.9375 C65.38039062 43.75089844 66.13578125 44.56429687 66.9140625 45.40234375 C69.41284226 48.51412004 72 51.87686179 72 56 C72.66 56 73.32 56 74 56 C75.4216319 59.3171411 76.39009109 62.44219804 77 66 C77.66 66 78.32 66 79 66 C79.433125 66.9590625 79.433125 66.9590625 79.875 67.9375 C80.82823451 70.15206079 80.82823451 70.15206079 83 71 C83.67902899 72.91254889 84.26751937 74.85752693 84.8125 76.8125 C86.10143473 81.26124861 87.56361837 85.32763564 89.5625 89.5 C101.90886774 118.53682784 95.08983951 156.72248899 84 185 C83.67 185.99 83.34 186.98 83 188 C82.34 188.33 81.68 188.66 81 189 C80.34786708 191.02463255 80.34786708 191.02463255 80 193 C79.34 193 78.68 193 78 193 C78 194.32 78 195.64 78 197 C77.34 197.33 76.68 197.66 76 198 C75.34786708 200.02463255 75.34786708 200.02463255 75 202 C74.34 202 73.68 202 73 202 C72.63068359 203.07701172 72.63068359 203.07701172 72.25390625 204.17578125 C69.8970872 209.48413069 65.75710746 213.62455981 62 218 C61.26007813 218.86496094 60.52015625 219.72992188 59.7578125 220.62109375 C51.31903809 230.24610157 42.11701994 238.54438874 31 245 C30.34 245 29.68 245 29 245 C28.67 245.99 28.34 246.98 28 248 C24.07277596 249.96361202 20.3429862 251.34197179 16 252 C15.67 252.99 15.34 253.98 15 255 C12.50684276 255.95706036 10.12635494 256.7298218 7.5625 257.4375 C2.88382368 258.79522746 -1.61714161 260.16825246 -6.0625 262.1875 C-22.09728368 268.68027306 -44.16562643 267.58195914 -61 265 C-61 264.34 -61 263.68 -61 263 C-61.61746094 262.95101563 -62.23492187 262.90203125 -62.87109375 262.8515625 C-72.05988769 262.04037521 -80.28034335 260.01961665 -89 257.0625 C-89.76707275 256.80960205 -90.53414551 256.5567041 -91.32446289 256.29614258 C-93.2508191 255.62231783 -95.13106764 254.81974377 -97 254 C-97.33 253.01 -97.66 252.02 -98 251 C-98.66 250.9175 -99.32 250.835 -100 250.75 C-107.13295267 248.96676183 -113.21797311 244.71546272 -119.1875 240.5625 C-119.87263672 240.09779297 -120.55777344 239.63308594 -121.26367188 239.15429688 C-125.25096749 236.40271751 -128.6681464 233.54509223 -132 230 C-133.10132183 228.87216077 -134.20290399 227.74457572 -135.3046875 226.6171875 C-141.47152563 220.1891878 -147.14897304 214.04869879 -151.5703125 206.26953125 C-153.12045408 203.80878737 -154.93934217 202.0399685 -157 200 C-160.01598614 195.20374427 -161.96125815 189.74456393 -164 184.48046875 C-164.9111978 182.22027108 -165.93255315 180.06409999 -167 177.875 C-168.9215462 173.6201477 -170.10785783 169.26248136 -171.25 164.75 C-171.4253125 164.06405762 -171.600625 163.37811523 -171.78125 162.67138672 C-172.65921464 159.04712742 -173.20240793 155.73008896 -173 152 C-173.66 152 -174.32 152 -175 152 C-175.98786081 147.88227828 -176.12903768 144.02157791 -176.1328125 139.79296875 C-176.13376923 139.10874344 -176.13472595 138.42451813 -176.13571167 137.71955872 C-176.1363897 136.27649849 -176.1345618 134.83343516 -176.13037109 133.39038086 C-176.12504229 131.20484391 -176.13031607 129.01951478 -176.13671875 126.83398438 C-176.13605742 125.42447872 -176.13477512 124.01497319 -176.1328125 122.60546875 C-176.13168457 121.33856201 -176.13055664 120.07165527 -176.12939453 118.76635742 C-175.9922466 114.77431751 -175.55153127 110.95355359 -175 107 C-174.34 107 -173.68 107 -173 107 C-172.94392578 106.07380859 -172.94392578 106.07380859 -172.88671875 105.12890625 C-172.35998198 98.34329721 -171.14262816 92.08463571 -167.95703125 86.01171875 C-166.94079339 83.8755453 -166.52963769 82.01210221 -166.125 79.6875 C-165.32653176 75.83976331 -164.06777379 73.03497144 -161.98828125 69.73046875 C-160.77830824 67.74300331 -160.77830824 67.74300331 -159.75 64.25 C-158.02786077 59.31578085 -154.87936685 55.44576081 -151.7421875 51.3203125 C-149.99250242 49.13451752 -149.99250242 49.13451752 -149 47 C-148.34 47 -147.68 47 -147 47 C-146.79246094 46.47535156 -146.58492187 45.95070312 -146.37109375 45.41015625 C-144.41196211 41.96632657 -141.77534154 39.30517673 -139.0625 36.4375 C-138.52431641 35.86064453 -137.98613281 35.28378906 -137.43164062 34.68945312 C-135.962166 33.11851047 -134.48902059 31.55242704 -133 30 C-132.48751709 29.44320557 -131.97503418 28.88641113 -131.44702148 28.31274414 C-130 27 -130 27 -128 27 C-127.505 25.515 -127.505 25.515 -127 24 C-124.99609375 22.3515625 -124.99609375 22.3515625 -122.4375 20.625 C-121.53515625 20.01527344 -120.6328125 19.40554687 -119.703125 18.77734375 C-118.81109375 18.19082031 -117.9190625 17.60429688 -117 17 C-116.25234375 16.50628906 -115.5046875 16.01257813 -114.734375 15.50390625 C-111.23255984 13.25178467 -107.88829492 11.51211469 -104 10 C-103.38125 9.525625 -102.7625 9.05125 -102.125 8.5625 C-97.97483142 5.51090546 -94.13768017 4 -89 4 C-89 3.34 -89 2.68 -89 2 C-85.535 1.505 -85.535 1.505 -82 1 C-82.33 3.31 -82.66 5.62 -83 8 C-83.66 8 -84.32 8 -85 8 C-85.33 15.92 -85.66 23.84 -86 32 C-89.3 33.65 -92.6 35.3 -96 37 C-99.6029025 39.1617415 -103.04197575 41.26887623 -106.375 43.8125 C-108 45 -108 45 -110 45 C-110 45.66 -110 46.32 -110 47 C-111.3984375 48.33984375 -111.3984375 48.33984375 -113.375 49.9375 C-121.50393048 56.8701517 -128.53478448 64.81345539 -134 74 C-134.52464844 74.86367187 -135.04929688 75.72734375 -135.58984375 76.6171875 C-138.77424868 82.11398428 -140.86737316 87.28709106 -142.35546875 93.45703125 C-142.92495779 95.70392437 -143.62486131 97.73427612 -144.5 99.875 C-148.49148741 110.2222171 -149.48006318 120.49171352 -149.375 131.5 C-149.38660156 132.71558594 -149.39820313 133.93117187 -149.41015625 135.18359375 C-149.37638966 145.73002593 -147.87108658 155.74840971 -143.375 165.375 C-141.46883541 169.69106037 -140.32039313 173.30090073 -140 178 C-139.01 178.33 -138.02 178.66 -137 179 C-135.94991347 180.97416268 -134.95012124 182.97582866 -134 185 C-133.01 185.99 -133.01 185.99 -132 187 C-132 188.32 -132 189.64 -132 191 C-131.34 191 -130.68 191 -130 191 C-128.86079233 192.32907562 -127.79086085 193.71757511 -126.75 195.125 C-123.05117449 199.86899823 -119.05697852 204.1763634 -114.8125 208.4375 C-114.21856445 209.04029785 -113.62462891 209.6430957 -113.01269531 210.26416016 C-107.76248094 215.48054962 -103.01452841 218.17476693 -95.890625 220.15625 C-95.26671875 220.4346875 -94.6428125 220.713125 -94 221 C-93.67 221.99 -93.34 222.98 -93 224 C-90.33288135 224.91945529 -90.33288135 224.91945529 -87.1875 225.625 C-81.40547812 227.43697165 -81.40547812 227.43697165 -79.703125 229.80078125 C-79.17004669 231.28850491 -78.66277579 232.78562295 -78.17578125 234.2890625 C-76.57027821 237.99078711 -74.22915778 240.75862305 -71.625 243.8125 C-71.16601318 244.36349365 -70.70702637 244.9144873 -70.23413086 245.48217773 C-63.91332866 252.79636046 -56.59849716 256.282776 -46.99804688 257.18896484 C-32.92507209 258.07896804 -23.03354069 255.10174232 -12 246 C-7.93818073 242.12783766 -5.01005808 238.199493 -2.5 233.1875 C-0.12808848 228.67470731 2.1426246 227.70008139 7 226 C8.48252395 225.07953184 9.93979788 224.11763979 11.375 223.125 C14.32438821 221.08887413 17.26121069 219.28316867 20.4375 217.625 C32.79821899 210.85347568 41.98086736 200.52821801 49.58984375 188.8359375 C50.05519531 188.23007813 50.52054688 187.62421875 51 187 C51.66 187 52.32 187 53 187 C53.391875 185.741875 53.78375 184.48375 54.1875 183.1875 C55.37564449 179.60633211 56.7695435 176.22599427 58.375 172.8125 C65.16060666 158.15147713 67.1989262 145.34044069 67.24023438 129.39892578 C67.24994988 127.13667143 67.28106227 124.87532398 67.3125 122.61328125 C67.39162533 111.85452404 65.85934664 102.71883579 61.5 92.8125 C60.03207438 89.41957013 58.61838454 86.04397672 57.375 82.5625 C56.1665094 79.43141073 54.75448277 76.84059114 53 74 C53 73.34 53 72.68 53 72 C52.01 71.67 51.02 71.34 50 71 C48.859375 69.3984375 48.859375 69.3984375 47.75 67.375 C45.08274889 62.87854647 41.7882037 59.55944744 38 56 C37.360625 55.319375 36.72125 54.63875 36.0625 53.9375 C33.50656957 51.53647444 30.74110855 49.51899793 27.90234375 47.46484375 C26 46 26 46 24.59570312 44.54541016 C22.99937187 42.99939166 21.47285794 41.94032876 19.56640625 40.80859375 C18.91736328 40.42123047 18.26832031 40.03386719 17.59960938 39.63476562 C16.92736328 39.23966797 16.25511719 38.84457031 15.5625 38.4375 C14.89412109 38.03853516 14.22574219 37.63957031 13.53710938 37.22851562 C10.40853676 35.37121632 7.29192975 33.55756267 4 32 C4.02320313 30.80503906 4.04640625 29.61007813 4.0703125 28.37890625 C4.20755211 18.33191124 4.23119089 9.36906555 0 0 Z " fill="#1D1D1D" transform="translate(190,28)"/>
<path d="M0 0 C1.80536451 2.40715269 2.03640669 3.61772974 1.75 6.625 C1 9 1 9 -1 11 C-2.21945313 11.433125 -3.43890625 11.86625 -4.6953125 12.3125 C-9.04475919 13.88198911 -12.30777907 16.09737686 -15.875 19 C-16.4743335 19.48057861 -17.07366699 19.96115723 -17.69116211 20.45629883 C-27.99039938 28.90995239 -36.07777707 38.5649105 -41 51 C-41.66 51 -42.32 51 -43 51 C-43.29003906 52.06927734 -43.29003906 52.06927734 -43.5859375 53.16015625 C-43.84632812 54.11792969 -44.10671875 55.07570312 -44.375 56.0625 C-44.78492187 57.57263672 -44.78492187 57.57263672 -45.203125 59.11328125 C-45.81597891 61.33337459 -46.46320068 63.54400226 -47.125 65.75 C-51.2468686 81.05979764 -50.64070636 99.90706051 -46 115 C-45.7215625 115.93972656 -45.443125 116.87945312 -45.15625 117.84765625 C-43.69849143 121.8220183 -41.8207882 125.49593514 -39.875 129.25 C-36 136.73183391 -36 136.73183391 -36 139 C-35.34 139 -34.68 139 -34 139 C-32.71211757 140.47144268 -31.49429673 142.0045715 -30.3125 143.5625 C-24.79268351 150.5680425 -19.4535066 155.91948523 -12 160.8125 C-11.41847168 161.19801025 -10.83694336 161.58352051 -10.23779297 161.98071289 C-4.80431553 165.42415441 1.49672684 168.13100403 8 167 C10.69393521 164.21733787 10.69393521 164.21733787 13 161 C16.43810459 157.64021214 19.22508711 157.59482446 23.9375 157.625 C25.14277344 157.61726562 26.34804687 157.60953125 27.58984375 157.6015625 C31.21851387 158.02553083 33.03778714 158.93955813 36 161 C38.3566226 162.08805146 38.3566226 162.08805146 41 162 C41.99 161.360625 42.98 160.72125 44 160.0625 C49.12096987 156.77692199 55.1460149 157.51744177 61 158 C61.99 158.33 62.98 158.66 64 159 C64 159.66 64 160.32 64 161 C64.556875 161.20625 65.11375 161.4125 65.6875 161.625 C68 163 68 163 70.375 166.125 C72.67261161 169.23468874 72.67261161 169.23468874 75.7421875 169.4609375 C79.89511776 168.87335264 82.5045685 166.98443377 85.75 164.5 C91.79054054 160 91.79054054 160 94 160 C94 159.34 94 158.68 94 158 C95.72265625 156.73828125 95.72265625 156.73828125 98.0625 155.3125 C111.82369173 146.40439313 118.93380401 132.82847908 125 118 C125.66 118 126.32 118 127 118 C127.31507274 116.47969758 127.62690732 114.958724 127.9375 113.4375 C128.11152344 112.59058594 128.28554687 111.74367188 128.46484375 110.87109375 C132.47673975 89.34741815 131.48254905 65.94166626 119.97729492 46.8125 C119 45 119 45 119 43 C118.34 43 117.68 43 117 43 C115.95703125 41.53125 115.95703125 41.53125 114.8125 39.5 C108.91340067 29.80983684 101.01578643 23.61081685 92 17 C90.91912109 16.18789062 90.91912109 16.18789062 89.81640625 15.359375 C86.37974917 12.8182388 82.87661453 10.79647991 79 9 C79.55728913 5.65626525 80.35173889 2.96687001 82 0 C95.57818771 1.64584093 110.43238845 16.21637959 118.875 26.25 C119.57625 27.1575 120.2775 28.065 121 29 C121.639375 29.7425 122.27875 30.485 122.9375 31.25 C129.64795678 40.1972757 133.76326971 49.79990875 137.125 60.375 C137.38925781 61.17421875 137.65351563 61.9734375 137.92578125 62.796875 C142.98868475 78.67948599 144.5997044 105.8005912 137 121 C136.34 121 135.68 121 135 121 C134.86730713 121.58773193 134.73461426 122.17546387 134.59790039 122.78100586 C131.23417836 135.26482357 122.4620836 148.43906722 113 157 C112.27039063 157.68707031 111.54078125 158.37414062 110.7890625 159.08203125 C105.50531378 163.98372429 100.15392591 168.25013113 94 172 C93.38253906 172.37898437 92.76507813 172.75796875 92.12890625 173.1484375 C86.32305459 176.58798436 80.73396484 179.17878478 74 180 C73.855625 181.11375 73.71125 182.2275 73.5625 183.375 C72.08452118 189.48397912 67.54005913 193.86651333 63 198 C62.34 198 61.68 198 61 198 C61 198.66 61 199.32 61 200 C58.89983377 201.17441535 56.79541245 202.33964012 54.6875 203.5 C54.09259766 203.83386719 53.49769531 204.16773438 52.88476562 204.51171875 C50.04171156 206.06825114 48.29339012 207 45 207 C45 207.66 45 208.32 45 209 C42.03 209 39.06 209 36 209 C36 208.34 36 207.68 36 207 C34.906875 207 33.81375 207 32.6875 207 C24.08300755 205.91681035 16.76777027 198.49653195 11.4140625 192.08984375 C9.89261167 189.84129072 8.930413 187.64764481 7.9375 185.125 C6.57753287 181.61994755 6.57753287 181.61994755 3.375 179.6875 C1.704375 179.3471875 1.704375 179.3471875 0 179 C-1.80170963 178.31761596 -3.5930421 177.6074149 -5.375 176.875 C-6.24898437 176.52179688 -7.12296875 176.16859375 -8.0234375 175.8046875 C-8.67570312 175.53914062 -9.32796875 175.27359375 -10 175 C-10 174.34 -10 173.68 -10 173 C-11.33998047 172.61134766 -11.33998047 172.61134766 -12.70703125 172.21484375 C-30.53604949 165.63735304 -44.45114773 144.46089 -52.20703125 127.96484375 C-58.43968288 114.31252619 -60.17901771 103.35538996 -60.125 88.4375 C-60.12886719 87.36564453 -60.13273437 86.29378906 -60.13671875 85.18945312 C-60.12029682 71.76452712 -57.8928103 61.75128841 -52.16796875 49.61328125 C-51.19936359 47.4460677 -50.48519451 45.39116943 -49.8125 43.125 C-47.50982207 36.65875907 -42.27587258 31.27560266 -38 26 C-37.27683594 25.04480469 -36.55367187 24.08960937 -35.80859375 23.10546875 C-35.21175781 22.41066406 -34.61492187 21.71585938 -34 21 C-33.34 21 -32.68 21 -32 21 C-31.66742188 20.14921875 -31.66742188 20.14921875 -31.328125 19.28125 C-27.5834753 12.84926346 -19.26587389 7.81401019 -13 4 C-12.2678125 3.54496094 -11.535625 3.08992188 -10.78125 2.62109375 C-9.9871875 2.14800781 -9.193125 1.67492187 -8.375 1.1875 C-7.27285156 0.52814453 -7.27285156 0.52814453 -6.1484375 -0.14453125 C-3.59823882 -1.159974 -2.51093508 -1.03582851 0 0 Z " fill="#272727" transform="translate(109,69)"/>
<path d="M0 0 C0 0.66 0 1.32 0 2 C1.7634375 2.0928125 1.7634375 2.0928125 3.5625 2.1875 C8.33315158 2.78065384 11.54322426 4.70783263 15 8 C16.1875 10.0625 16.1875 10.0625 17 12 C17.928125 12.8353125 17.928125 12.8353125 18.875 13.6875 C25.23313218 20.60664385 26.33039322 29.47760444 26.19921875 38.48828125 C25.54785373 49.97018615 22.04699442 55.95300558 14 64 C13.34 64.99 12.68 65.98 12 67 C11.34 67 10.68 67 10 67 C10 67.66 10 68.32 10 69 C-1.61776762 73.69179077 -16.37913524 73.88388057 -28 69 C-34.58712397 64.84318387 -39.76323435 58.56651933 -41.8125 51 C-41.874375 50.34 -41.93625 49.68 -42 49 C-42.66 49 -43.32 49 -44 49 C-45.19436922 44.71798291 -45.22110766 40.67052846 -45.25 36.25 C-45.270625 35.4765625 -45.29125 34.703125 -45.3125 33.90625 C-45.38246793 23.48102844 -40.87883322 15.95973665 -33.9375 8.375 C-24.02010535 -1.14120555 -12.91612975 -0.51152989 0 0 Z " fill="#242424" transform="translate(159,13)"/>
<path d="M0 0 C0.17273438 0.52207031 0.34546875 1.04414063 0.5234375 1.58203125 C3.63807545 9.74009671 9.13000356 17.31356175 16.875 21.5859375 C19.23443329 22.5310514 21.54518005 23.34712235 24 24 C24 24.66 24 25.32 24 26 C37.98110369 28.91272993 53.84766398 29.3341285 66.328125 21.921875 C68.17341972 20.59455775 69.97421375 19.20392819 71.734375 17.765625 C74 16 74 16 76 16 C76.37125 15.1646875 76.37125 15.1646875 76.75 14.3125 C78 12 78 12 79.9375 9.625 C82.08924481 6.8864157 83.53487599 4.15001662 85 1 C88.73487777 1.4979837 90.81237635 1.87491756 94 4 C91.67578165 14.14610702 85.19643915 21.84284868 77.1875 28.25 C65.70391571 34.55471294 56.58933776 38.38248792 43.375 38.3125 C42.30773682 38.30831055 41.24047363 38.30412109 40.14086914 38.29980469 C28.57057746 38.13422542 17.39363356 37.05712653 8.625 28.75 C7.75875 27.8425 6.8925 26.935 6 26 C4.52186292 24.76959539 3.04259002 23.54055466 1.5625 22.3125 C-3.07131109 18.22885712 -6.53353266 13.68738351 -9 8 C-9 6.68 -9 5.36 -9 4 C-7.68 3.67 -6.36 3.34 -5 3 C-5 2.34 -5 1.68 -5 1 C-3 0 -3 0 0 0 Z " fill="#272727" transform="translate(107,169)"/>
<path d="M0 0 C4.62 0 9.24 0 14 0 C14.495 6.93 14.495 6.93 15 14 C19.95 14.33 24.9 14.66 30 15 C30 19.95 30 24.9 30 30 C25.05 30 20.1 30 15 30 C15 34.95 15 39.9 15 45 C10.05 45 5.1 45 0 45 C-0.33 40.38 -0.66 35.76 -1 31 C-7.93 30.505 -7.93 30.505 -15 30 C-15 25.05 -15 20.1 -15 15 C-10.05 15 -5.1 15 0 15 C0 10.05 0 5.1 0 0 Z " fill="#F7F7F7" transform="translate(142,27)"/>
<path d="M0 0 C3.3 0 6.6 0 10 0 C10 0.66 10 1.32 10 2 C10.763125 2.268125 11.52625 2.53625 12.3125 2.8125 C15 4 15 4 16.5 5.6875 C17.95809072 7.26286622 17.95809072 7.26286622 20.3125 6.9375 C23.94916886 5.66889458 27.25606682 3.74393318 30 1 C31.80812724 0.84908087 33.62330617 0.77830992 35.4375 0.75 C36.42621094 0.72421875 37.41492188 0.6984375 38.43359375 0.671875 C39.70396484 0.83429688 39.70396484 0.83429688 41 1 C43.45552068 4.68328103 43.65218462 6.93955359 43.58203125 11.2890625 C42.49341205 16.35954388 38.94051836 19.80907413 35 23 C33.66001953 23.5259375 33.66001953 23.5259375 32.29296875 24.0625 C31.53628906 24.371875 30.77960938 24.68125 30 25 C29.505 26.485 29.505 26.485 29 28 C26.23542845 30.19539506 24.24818198 30.96181816 20.75 31.5 C15.7513652 30.83351536 12.21056905 28.67337717 8 26 C8 25.34 8 24.68 8 24 C7.41605469 23.7421875 6.83210937 23.484375 6.23046875 23.21875 C3.82250751 21.90301636 2.22527307 20.45841408 0.3125 18.5 C-0.59048828 17.58734375 -0.59048828 17.58734375 -1.51171875 16.65625 C-4.78840926 13.00974928 -4.07587944 9.70452499 -4 5 C-3.34 5 -2.68 5 -2 5 C-1.34 3.35 -0.68 1.7 0 0 Z " fill="#F2F2F2" transform="translate(129,237)"/>
<path d="M0 0 C5.8410881 -0.46728705 9.23040991 1.15721726 13.98828125 4.45703125 C17.3387509 7.55857042 18.7817434 10.07584219 19.3671875 14.6328125 C19.36847656 15.8290625 19.36976563 17.0253125 19.37109375 18.2578125 C19.39042969 19.4540625 19.40976563 20.6503125 19.4296875 21.8828125 C18.84553156 25.85691278 17.7192966 27.4218262 14.93359375 30.2578125 C8.44117588 35.02775216 2.91450485 36.41808083 -5.06640625 35.2578125 C-8.22601145 33.74218938 -10.86588674 32.00688559 -13.06640625 29.2578125 C-13.06640625 27.9378125 -13.06640625 26.6178125 -13.06640625 25.2578125 C-13.72640625 25.2578125 -14.38640625 25.2578125 -15.06640625 25.2578125 C-17.03135988 21.32790524 -16.40088312 16.55127929 -16.06640625 12.2578125 C-14.40823061 7.54510279 -11.94037273 4.41104103 -8.06640625 1.2578125 C-5.33590205 0.45107262 -2.80434197 0.3498801 0 0 Z " fill="#1F1F1F" transform="translate(180.06640625,111.7421875)"/>
<path d="M0 0 C4.01338392 3.54671137 6.61074063 6.379985 7.40625 11.734375 C7.60806557 18.22610911 7.17040574 22.43505898 2.765625 27.375 C-1.1346245 30.96461016 -4.85004985 33.17734428 -10.25 33.6875 C-16.34111803 33.41491985 -21.5306088 29.94987222 -26 26 C-29.03057073 20.45627306 -28.96599549 14.12042946 -28 8 C-25.64017321 3.55237256 -22.59595437 0.85117566 -18.1875 -1.5 C-12.17052346 -2.44383946 -5.4156203 -3.24937218 0 0 Z " fill="#1F1F1F" transform="translate(127,114)"/>
<path d="M0 0 C11.385 0.99 11.385 0.99 23 2 C23 2.66 23 3.32 23 4 C19.91698584 4.11644156 16.83453877 4.18732432 13.75 4.25 C12.44095703 4.30027344 12.44095703 4.30027344 11.10546875 4.3515625 C9.83896484 4.37089844 9.83896484 4.37089844 8.546875 4.390625 C7.77182617 4.41157227 6.99677734 4.43251953 6.19824219 4.45410156 C4 4 4 4 0 0 Z " fill="#B3B3B3" transform="translate(136,83)"/>
<path d="M0 0 C1.68996094 0.00580078 1.68996094 0.00580078 3.4140625 0.01171875 C6.375 0.3125 6.375 0.3125 9.375 2.3125 C7.85519531 2.22548828 7.85519531 2.22548828 6.3046875 2.13671875 C-0.9540761 1.59131017 -0.9540761 1.59131017 -7.78125 3.42578125 C-9.10614852 4.67668278 -10.37001782 5.99146613 -11.625 7.3125 C-14.5 7.625 -14.5 7.625 -16.625 7.3125 C-16.625 6.3225 -16.625 5.3325 -16.625 4.3125 C-15.5421875 4.1578125 -15.5421875 4.1578125 -14.4375 4 C-11.58373431 3.47416225 -11.58373431 3.47416225 -9.36328125 1.7890625 C-6.02154388 -0.01290144 -3.77494415 -0.05640721 0 0 Z " fill="#6B6B6B" transform="translate(163.625,226.6875)"/>
<path d="M0 0 C-3 2 -3 2 -6 2 C-6.23460937 2.75667969 -6.46921875 3.51335938 -6.7109375 4.29296875 C-8.23509672 7.49370311 -9.63506942 8.47582836 -12.625 10.3125 C-13.44226563 10.82425781 -14.25953125 11.33601563 -15.1015625 11.86328125 C-15.72804688 12.23839844 -16.35453125 12.61351562 -17 13 C-15.47238013 9.37190281 -13.29392861 7.05653702 -10.5 4.3125 C-9.7059375 3.52488281 -8.911875 2.73726562 -8.09375 1.92578125 C-5.00152488 -0.91837357 -3.93108132 -1.1793244 0 0 Z " fill="#515151" transform="translate(136,17)"/>
<path d="M0 0 C0 2 0 2 -1.9375 4.125 C-5.83806345 7.87901049 -9.93274215 11.42896533 -14 15 C-14 12 -14 12 -11.4453125 9.08203125 C-10.34630754 7.98435681 -9.23915907 6.89478953 -8.125 5.8125 C-7.56941406 5.25369141 -7.01382813 4.69488281 -6.44140625 4.11914062 C-2.26694139 0 -2.26694139 0 0 0 Z " fill="#C5C5C5" transform="translate(80,75)"/>
<path d="M0 0 C0 3 0 3 -2 6 C-2.66 6 -3.32 6 -4 6 C-4.433125 6.928125 -4.433125 6.928125 -4.875 7.875 C-6 10 -6 10 -8 12 C-10.32275177 12.40047444 -12.65739357 12.7397104 -15 13 C-13.61349567 10.22699134 -11.65746752 9.54503926 -9 8 C-8.278125 7.443125 -7.55625 6.88625 -6.8125 6.3125 C-5 5 -5 5 -3 5 C-2.690625 4.360625 -2.38125 3.72125 -2.0625 3.0625 C-1 1 -1 1 0 0 Z " fill="#606060" transform="translate(186,180)"/>
<path d="M0 0 C0.67578125 1.75 0.67578125 1.75 1 4 C-0.14453125 6 -0.14453125 6 -1.8125 8 C-3.9314444 10.57695851 -5.60887641 12.959886 -7 16 C-7.66 16 -8.32 16 -9 16 C-7.21588764 9.75560673 -3.91941225 5.09523593 0 0 Z " fill="#AEAEAE" transform="translate(62,92)"/>
<path d="M0 0 C0.33 0.66 0.66 1.32 1 2 C-0.2739589 4.03833424 -1.61061923 6.03852126 -3 8 C-3.66 8 -4.32 8 -5 8 C-5.226875 8.639375 -5.45375 9.27875 -5.6875 9.9375 C-7 12 -7 12 -9.625 12.75 C-10.40875 12.8325 -11.1925 12.915 -12 13 C-11.319375 12.34 -10.63875 11.68 -9.9375 11 C-6.43274653 7.50531766 -3.22778212 3.74869221 0 0 Z " fill="#4D4D4D" transform="translate(185,266)"/>
<path d="M0 0 C0.33 0 0.66 0 1 0 C1.25 5.625 1.25 5.625 -1 9 C-1.66 9 -2.32 9 -3 9 C-3.144375 9.94875 -3.28875 10.8975 -3.4375 11.875 C-4 15 -4 15 -5 17 C-5.66 17 -6.32 17 -7 17 C-5.1668733 11.00067626 -2.92678249 5.55079437 0 0 Z " fill="#767676" transform="translate(251,195)"/>
<path d="M0 0 C0.66 0.33 1.32 0.66 2 1 C0 4 0 4 -3 5 C-4.38576923 6.62332967 -5.72641268 8.28724465 -7 10 C-8.32 9.67 -9.64 9.34 -11 9 C-7.37 6.03 -3.74 3.06 0 0 Z " fill="#C2C2C2" transform="translate(96,85)"/>
<path d="M0 0 C0 3.86695678 -1.41909971 6.5088452 -3 10 C-5.33333333 10 -7.66666667 10 -10 10 C-6.7 6.7 -3.4 3.4 0 0 Z " fill="#C6C6C6" transform="translate(248,250)"/>
<path d="M0 0 C0.66 0.33 1.32 0.66 2 1 C-1.625 6.75 -1.625 6.75 -5 9 C-8.625 8.75 -8.625 8.75 -12 8 C-12.33 7.34 -12.66 6.68 -13 6 C-11.1746875 6.185625 -11.1746875 6.185625 -9.3125 6.375 C-6.65481421 6.40332347 -5.44127415 6.35846974 -3.35546875 4.6640625 C-1.81890594 2.83171391 -1.81890594 2.83171391 0 0 Z " fill="#686868" transform="translate(122,230)"/>
<path d="M0 0 C5.29441695 -0.50423019 7.81413519 0.81076967 12 4 C8.75370153 5.08209949 8.12563502 4.78140875 5 4 C4.01 4.33 3.02 4.66 2 5 C1.34 3.35 0.68 1.7 0 0 Z " fill="#5B5B5B" transform="translate(190,28)"/>
<path d="M0 0 C0 3.63327194 -0.95586411 5.04735927 -3 8 C-3.99 8.66 -4.98 9.32 -6 10 C-6.33 10.99 -6.66 11.98 -7 13 C-7.99 13.33 -8.98 13.66 -10 14 C-8.62815653 9.93501119 -6.77931541 7.32603439 -3.875 4.1875 C-3.15054688 3.39730469 -2.42609375 2.60710937 -1.6796875 1.79296875 C-1.12539062 1.20128906 -0.57109375 0.60960938 0 0 Z " fill="#B1B1B1" transform="translate(84,95)"/>
<path d="M0 0 C0.66 0.33 1.32 0.66 2 1 C-1.85623679 6.66384778 -1.85623679 6.66384778 -5.11328125 7.62109375 C-7.06660622 7.84661084 -9.03482858 7.93338402 -11 8 C-8.83385197 5.69125289 -6.60793392 3.94709819 -3.9375 2.25 C-2.89916016 1.57710937 -2.89916016 1.57710937 -1.83984375 0.890625 C-1.23269531 0.59671875 -0.62554687 0.3028125 0 0 Z " fill="#5F5F5F" transform="translate(216,242)"/>
<path d="M0 0 C0.33 0.66 0.66 1.32 1 2 C-0.92333011 6.06036357 -3.40069448 8.37347975 -7 11 C-7.66 10.67 -8.32 10.34 -9 10 C-6.03 6.7 -3.06 3.4 0 0 Z " fill="#545454" transform="translate(223,209)"/>
<path d="M0 0 C1.51553092 3.97450493 0.49888623 7.20481149 -0.4375 11.25 C-0.72496094 12.51328125 -1.01242188 13.7765625 -1.30859375 15.078125 C-1.53675781 16.04234375 -1.76492187 17.0065625 -2 18 C-2.33 18 -2.66 18 -3 18 C-2.67 12.72 -2.34 7.44 -2 2 C-1.34 2 -0.68 2 0 2 C0 1.34 0 0.68 0 0 Z " fill="#636363" transform="translate(44,125)"/>
<path d="M0 0 C0.66 0 1.32 0 2 0 C1.5037037 4.59074074 1.5037037 4.59074074 -1 6.625 C-1.66 7.07875 -2.32 7.5325 -3 8 C-3.33 8.99 -3.66 9.98 -4 11 C-4.66 11 -5.32 11 -6 11 C-4.54997977 6.89160936 -2.6020866 3.49655387 0 0 Z " fill="#555555" transform="translate(41,75)"/>
<path d="M0 0 C1.485 0.99 1.485 0.99 3 2 C5.5254223 2.0255089 5.5254223 2.0255089 8.1875 1.625 C9.08855469 1.51414063 9.98960937 1.40328125 10.91796875 1.2890625 C11.60503906 1.19367188 12.29210937 1.09828125 13 1 C10.70232915 3.82790258 9.61051925 4.91278296 5.9375 5.4375 C3 5 3 5 1.125 3.625 C0 2 0 2 0 0 Z " fill="#909090" transform="translate(179,234)"/>
<path d="M0 0 C-0.37881078 2.74637817 -0.77832287 3.80049058 -2.875 5.6875 C-5 7 -5 7 -8 8 C-6.48291727 4.46014029 -4.24676932 0 0 0 Z " fill="#595959" transform="translate(174,113)"/>
<path d="M0 0 C0.66 0.33 1.32 0.66 2 1 C-3 7.57142857 -3 7.57142857 -8 9 C-6.4169423 4.7257442 -3.49431596 2.73468206 0 0 Z " fill="#606060" transform="translate(85,81)"/>
<path d="M0 0 C1 2 1 2 0.25 4.5 C-1 7 -1 7 -4 9 C-4.66 8.34 -5.32 7.68 -6 7 C-4.02 4.69 -2.04 2.38 0 0 Z " fill="#BBBBBB" transform="translate(178,70)"/>
<path d="M0 0 C9.59453303 1.74259681 9.59453303 1.74259681 13 5 C8.02693484 4.50269348 4.36200187 3.44697666 0 1 C0 0.67 0 0.34 0 0 Z " fill="#ACACAC" transform="translate(96,251)"/>
<path d="M0 0 C-1.175625 0.928125 -1.175625 0.928125 -2.375 1.875 C-4.96837647 3.89858661 -4.96837647 3.89858661 -7 6 C-6.625 3.0625 -6.625 3.0625 -6 0 C-3.50907189 -1.24546405 -2.58919267 -0.7767578 0 0 Z " fill="#CDCDCD" transform="translate(189,249)"/>
<path d="M0 0 C0.33 0.66 0.66 1.32 1 2 C-0.70625501 4.78388975 -1.47626739 5.85384206 -4.6875 6.75 C-5.8321875 6.87375 -5.8321875 6.87375 -7 7 C-4.66666667 4.66666667 -2.33333333 2.33333333 0 0 Z " fill="#C4C4C4" transform="translate(219,228)"/>
<path d="M0 0 C-0.33 1.65 -0.66 3.3 -1 5 C-1.99 4.67 -2.98 4.34 -4 4 C-4.99 4 -5.98 4 -7 4 C-2.25 0 -2.25 0 0 0 Z " fill="#B9B9B9" transform="translate(187,195)"/>
<path d="M0 0 C3.36591866 1.44253657 5.51047079 3.33264727 8 6 C5.69 5.34 3.38 4.68 1 4 C0.67 2.68 0.34 1.36 0 0 Z " fill="#A1A1A1" transform="translate(110,193)"/>
<path d="M0 0 C0.8125 1.6875 0.8125 1.6875 1 4 C-1.4375 6.75 -1.4375 6.75 -4 9 C-2.94124926 5.59687262 -1.99097846 2.98646769 0 0 Z " fill="#D1D1D1" transform="translate(62,92)"/>
</svg>
